# xmcd
#
# Track frame offsets:
#	182
#	20000
#	38437
#	50892
#	63675
#	77920
#	95497
#	111010
#	128900
#	143930
#	156815
#	172127
#	177802
#	190090
#
# Disc length: 2706 seconds
#
# Revision: 3
# Processed by: cddbd v1.5.2PL0 Copyright (c) Steve Scherf et al.
# Submitted via: audiograbber 1.83.01
#
DISCID=c40a900e
DTITLE=Professor Longhair - BLU GNC 064 - Live In London
DYEAR=1978
DGENRE=Blues
TTITLE0=Mess Around
TTITLE1=Hey Now Baby
TTITLE2=Whole Lot Of Loving
TTITLE3=Go To The Mardi Gras
TTITLE4=Baldhead
TTITLE5=Tipitina
TTITLE6=Big Chief
TTITLE7=Everyday I Have The Blues
TTITLE8=Hey Little Girl
TTITLE9=Lovely Lady
TTITLE10=Medley: She Walked Right In - Shake Rattle and Roll - Sick and Tired
TTITLE11=Rockin Pneumonia
TTITLE12=Rockin' With Fess
TTITLE13=P. I. Boogie
EXTD=also known as The London Concert and The London Complete Concert\nBLUNC 64
EXTT0=
EXTT1=
EXTT2=
EXTT3=
EXTT4=
EXTT5=
EXTT6=
EXTT7=
EXTT8=
EXTT9=
EXTT10=
EXTT11=
EXTT12=
EXTT13=
PLAYORDER=
